<svg xmlns="http://www.w3.org/2000/svg" width="35" height="35" viewBox="0 0 35 35">
  <defs>
    <style>
      .cls-1 {
        fill: #f3f6f9;
      }
    </style>
  </defs>
  <g id="Group_6540" data-name="Group 6540" transform="translate(-610 -553)">
    <circle id="Ellipse_805" data-name="Ellipse 805" class="cls-1" cx="17.5" cy="17.5" r="17.5" transform="translate(610 553)"/>
    <path id="Icon_awesome-camera" data-name="Icon awesome-camera" d="M20.468,6.393V17.048a1.852,1.852,0,0,1-1.919,1.776H1.919A1.852,1.852,0,0,1,0,17.048V6.393A1.852,1.852,0,0,1,1.919,4.618H5.437L5.928,3.4A1.917,1.917,0,0,1,7.723,2.25H12.74A1.917,1.917,0,0,1,14.535,3.4l.5,1.217h3.518A1.852,1.852,0,0,1,20.468,6.393Zm-5.437,5.327a4.632,4.632,0,0,0-4.8-4.439,4.632,4.632,0,0,0-4.8,4.439,4.632,4.632,0,0,0,4.8,4.439A4.632,4.632,0,0,0,15.031,11.721Zm-1.279,0a3.4,3.4,0,0,1-3.518,3.255,3.4,3.4,0,0,1-3.518-3.255,3.4,3.4,0,0,1,3.518-3.255A3.4,3.4,0,0,1,13.752,11.721Z" transform="translate(617.266 559.963)"/>
  </g>
</svg>
